<?xml version="1.0" encoding="UTF-8" standalone="no"?>
<svg
   xmlns:dc="http://purl.org/dc/elements/1.1/"
   xmlns:cc="http://creativecommons.org/ns#"
   xmlns:rdf="http://www.w3.org/1999/02/22-rdf-syntax-ns#"
   xmlns:svg="http://www.w3.org/2000/svg"
   xmlns="http://www.w3.org/2000/svg"
   xmlns:sodipodi="http://sodipodi.sourceforge.net/DTD/sodipodi-0.dtd"
   xmlns:inkscape="http://www.inkscape.org/namespaces/inkscape"
   width="800"
   height="800"
   viewBox="0 0 211.66666 211.66667"
   version="1.1"
   id="svg8"
   inkscape:version="1.0.1 (3bc2e813f5, 2020-09-07)"
   sodipodi:docname="Cloudflare Tunnel Runner Icon.svg"
   inkscape:export-filename="C:\Users\super\workspace\CFTunnelRunner\Cloudflare Tunnel Runner\icon.png"
   inkscape:export-xdpi="7.6799998"
   inkscape:export-ydpi="7.6799998">
  <defs
     id="defs2" />
  <sodipodi:namedview
     id="base"
     pagecolor="#ffffff"
     bordercolor="#666666"
     borderopacity="1.0"
     inkscape:pageopacity="0.0"
     inkscape:pageshadow="2"
     inkscape:zoom="0.35"
     inkscape:cx="348.57143"
     inkscape:cy="331.42857"
     inkscape:document-units="px"
     inkscape:current-layer="layer2"
     inkscape:document-rotation="0"
     showgrid="false"
     units="px"
     inkscape:window-width="1920"
     inkscape:window-height="1017"
     inkscape:window-x="1912"
     inkscape:window-y="-8"
     inkscape:window-maximized="1" />
  <metadata
     id="metadata5">
    <rdf:RDF>
      <cc:Work
         rdf:about="">
        <dc:format>image/svg+xml</dc:format>
        <dc:type
           rdf:resource="http://purl.org/dc/dcmitype/StillImage" />
        <dc:title></dc:title>
      </cc:Work>
    </rdf:RDF>
  </metadata>
  <g
     inkscape:groupmode="layer"
     id="layer2"
     inkscape:label="Background">
    <path
       style="fill:#00ff00;stroke-width:2.85714"
       d="M 123.84365,368.83949 C 69.009751,355.35886 32.708226,321.553 13.240839,265.84048 5.5976317,243.96685 4.5796443,236.95168 3.4503483,198.37205 2.0112929,149.21024 6.8694446,122.38958 23.339051,88.571429 34.175317,66.320591 65.677209,33.723969 87.64422,22.031574 137.32201,-4.4104535 213.81662,-3.9557876 278.42762,23.165545 L 300,32.220843 V 60.488691 88.756543 L 284.95863,77.400197 C 220.20093,28.50766 129.98454,28.01766 85.464074,76.316666 45.481226,119.69293 36.947903,212.92775 67.444094,273.2024 103.82987,345.11763 207.32227,357.62757 285.10554,299.51286 l 15.10555,-11.28592 -0.81983,27.75526 -0.81983,27.75523 -22.85714,9.76106 c -48.81793,20.84751 -105.98378,26.62202 -151.87064,15.341 z"
       id="path23"
       transform="scale(0.26458333)" />
    <path
       style="fill:#00ff00;stroke-width:2.85714"
       d="M 123.84365,368.83949 C 69.009751,355.35886 32.708226,321.553 13.240839,265.84048 5.5976317,243.96685 4.5796443,236.95168 3.4503483,198.37205 2.0112929,149.21024 6.8694446,122.38958 23.339051,88.571429 34.175317,66.320591 65.677209,33.723969 87.64422,22.031574 137.32201,-4.4104535 213.81662,-3.9557876 278.42762,23.165545 L 300,32.220843 V 60.488691 88.756543 L 284.95863,77.400197 C 220.20093,28.50766 129.98454,28.01766 85.464074,76.316666 45.481226,119.69293 36.947903,212.92775 67.444094,273.2024 103.82987,345.11763 207.32227,357.62757 285.10554,299.51286 l 15.10555,-11.28592 -0.81983,27.75526 -0.81983,27.75523 -22.85714,9.76106 c -48.81793,20.84751 -105.98378,26.62202 -151.87064,15.341 z"
       id="path25"
       transform="scale(0.26458333)" />
    <path
       style="fill:#00ff00;stroke-width:2.85714"
       d="M 123.84365,368.83949 C 69.009751,355.35886 32.708226,321.553 13.240839,265.84048 5.5976317,243.96685 4.5796443,236.95168 3.4503483,198.37205 2.0112929,149.21024 6.8694446,122.38958 23.339051,88.571429 34.175317,66.320591 65.677209,33.723969 87.64422,22.031574 137.32201,-4.4104535 213.81662,-3.9557876 278.42762,23.165545 L 300,32.220843 V 60.488691 88.756543 L 284.95863,77.400197 C 220.20093,28.50766 129.98454,28.01766 85.464074,76.316666 45.481226,119.69293 36.947903,212.92775 67.444094,273.2024 103.82987,345.11763 207.32227,357.62757 285.10554,299.51286 l 15.10555,-11.28592 -0.81983,27.75526 -0.81983,27.75523 -22.85714,9.76106 c -48.81793,20.84751 -105.98378,26.62202 -151.87064,15.341 z"
       id="path27"
       transform="scale(0.26458333)" />
    <rect
       style="fill:#ffff00;stroke-width:0.362266"
       id="rect33"
       width="211.66667"
       height="211.66667"
       x="0"
       y="0" />
  </g>
  <g
     inkscape:label="Layer 1"
     inkscape:groupmode="layer"
     id="layer1">
    <text
       xml:space="preserve"
       style="font-style:normal;font-weight:normal;font-size:132.292px;line-height:1.25;font-family:sans-serif;fill:#ff6600;fill-opacity:1;stroke:none;stroke-width:0.264583;"
       x="-7.4285064"
       y="97.927094"
       id="text12"><tspan
         sodipodi:role="line"
         id="tspan10"
         x="-7.4285064"
         y="97.927094"
         style="font-size:132.292px;stroke-width:0.264583;fill:#ff6600;">C</tspan></text>
    <text
       xml:space="preserve"
       style="font-style:normal;font-weight:normal;font-size:132.292px;line-height:1.25;font-family:sans-serif;fill:#0000ff;fill-opacity:1;stroke:none;stroke-width:0.264583;"
       x="65.073441"
       y="153.92484"
       id="text16"><tspan
         sodipodi:role="line"
         id="tspan14"
         x="65.073441"
         y="153.92484"
         style="font-size:132.292px;stroke-width:0.264583;fill:#0000ff;">T</tspan></text>
    <text
       xml:space="preserve"
       style="font-style:normal;font-weight:normal;font-size:132.292px;line-height:1.25;font-family:sans-serif;fill:#00ff00;fill-opacity:1;stroke:none;stroke-width:0.264583;"
       x="119.16561"
       y="211.66667"
       id="text20"><tspan
         sodipodi:role="line"
         id="tspan18"
         x="119.16561"
         y="211.66667"
         style="font-size:132.292px;stroke-width:0.264583;fill:#00ff00;">R</tspan></text>
  </g>
</svg>
